<svg width="485" height="190" xmlns="http://www.w3.org/2000/svg"><g fill="none" fill-rule="evenodd"><path d="M373 34c-83.993 7.23-200.913.47-288.632 38.052-1.952.836 4.409-.46 6.356.388 11.155 4.854 21.537 11.346 32.54 16.538 7.93 3.741 16.03 7.13 24.224 10.246 14.138 5.375 28.192 11.112 42.747 15.219 36.143 10.199 72.466 19.916 109.21 27.66 21.189 4.467 45.814 20.159 64.344 8.92 14.641-8.88 4.385-34.074 5.385-51.21 3.117-53.42 2.38-51.504-44.578-65.645-.92-.277-2.395-.247-2.814.62-.649 1.344.238 2.977.357 4.466" stroke="#FFF"/><path d="M271.836 120.75c5.078-5.416 1.653-.532-1.69-2.623-1.046-.653 2.495-.832 3.613-.336 4.446 1.974 8.171 5.554 12.613 7.54 4.721 2.11 9.636 3.994 14.71 4.673.83.11 1.344-3.04.602-2.624l-2.884-.328c-.534.3-.593 2.058 0 1.944l3.062.325c.462-.089-1.643-.366-1.266-.668l2.184-2.725c7.974-6.385 16.592-11.836 24.352-18.522 1.15-.992-5.1-.361-3.494 1.644.377.47 4.255-2.087 4.176-2.026-8.215 6.218-3.065 3.41 20.956 18.517 1.835 1.154 3.768 2.216 5.826 2.784 3.082.85 6.325.794 9.45 1.433 1.38.282-2.799-.23-4.197-.36-1.271-.117 4.078 1.669 3.816.325l.57-4.314c-.047-.243-19.224 5.9-27.262 8.565-1.556.517 3.377-.615 4.6-1.772 4.119-3.894-17.371 2.06 2.137-1.347.4-.07.346-1.083 0-1.312-8.604-5.683-19.408-8.188-26.34-16.085-3.447-3.927 10.012 1.352 14.808 2.947 3.87 1.288-6.267 2.364-3.853 3.557 6.134 3.032 40.878-46.07-14.387 16.913-.6.683 6.227-9.101-1.897-1.171-.199.194 7.384-5.952-1.426-2.674-20.056 7.462-39.683 16.202-59.645 23.952-4.513 1.752 8.526-2.287 5.275-4.853-.782-.617-23.146 11.636 14.826-8.75 8.883-4.769 18.655-7.652 27.141-13.196 1.978-1.291-4.626 0-6.94 0-1.711 0 5.93-1.634 5.137 0-1.024 2.114-4.077 2.06-6.275 2.35-3.81.504-7.72.611-11.518 0-15.515-2.494-30.988-5.444-46.263-9.291-58.248-14.672 22.608 5.37 9.167-1.995-1.247-.683-5.458-.653-4.197 0l6.73.32c21.026 10.883 40.891 24.241 61.886 35.196 7.559 3.944 15.933 5.805 23.63 9.425 1.096.515-2.391 0-3.587 0-.764 0 7.476.39-.367-2.019-1.49-.457-3.11-.195-4.65 0-9.86 1.255-19.767 2.293-29.51 4.346-10.507 2.213-20.557 6.75-31.148 8.433-1.955.31 3.961-2.138 4.47-4.193.284-1.15-2.083-.975-3.189-.984-.673-.006 1.276 1.417 1.807.972l.297-2.296c4.312-3.617 9.48-5.933 13.803-9.534 3.709-3.088 6.963-6.778 10.186-10.443.386-.439-1.046.433-1.57.648l-2.086.64c-.571.233-.779 1.53-.305 1.944 2.736 2.392 5.98 4.037 9.12 5.763 7.9 4.344 15.766 8.821 23.978 12.435 5.921 2.605 12.38 3.598 18.313 6.172.6.26-6.224-1.11-5.279-1.644 8.169-4.603 17.296-6.974 25.579-11.333 13.13-6.911 26.034-14.356 38.576-22.434.433-.279-5.759-1.321-5.445-1.05 10.131 8.766 20.371 17.477 31.371 24.932 4.94 3.348 10.994 4.34 16.154 7.277 1.18.673-4.808.786-3.994-.355l-.294-1.362c1.536-2.153 30.619-3.85-11.27-.984-16.673 1.14-33.3 2.926-49.953 4.357-13.075 1.123 7.888.256 3.363-1.312-4.491-1.556-4.576 2.962 1.335-2.354 7.825-7.038 14.999-14.88 22.694-22.082.654-.612-1.639 1.343-1.524 2.268.08.642 2.409-.029 1.807 0l-16.72-1.64c-7.622.364-15.283.594-22.828 1.816-8.764 1.419-17.303 4.137-25.978 6.086-.128.03 4.217-.83 1.807-2.623-.853-.635-3.849.43-3.094-.336 2.58-2.618 5.943-4.22 9.163-5.821 16.158-8.037 32.848-14.811 48.911-23.066 28.556-14.675-43.793-18.628-48.987-19.849-1.608-.378 3.543.605 4.926-.355.779-.54-1.866-.598-2.485-1.34-.446-.533 1.241.657 1.908.649l-2.79 1.62c4.415-.055 8.863-.6 13.14-1.776 14.924-4.108 29.68-8.929 44.333-14.044 1.3-.454-2.744-.17-4.103 0-.508.064 1.75-.16 1.506.324l-11.649 20.314c-3.323 6.558-5.202 13.94-8.91 20.255-.749 1.276.127-3.09-.33-4.518-.135-.426-.812-.447-1.218-.335l-.635-1.64c-11.205 3.09-22.558 5.723-33.476 9.835-9.501 3.578-18.207 9.3-27.61 13.172-.762.314 1.786-2.913 1.205-2.295l-1.828.324c-.357.38-.462 1.408 0 1.62 1.817.835 9.942.01 19.092-1.312 10.844-1.566 21.305-5.47 32.108-7.34 3.386-.586 6.876.37 10.288 0 .723-.078 2.434-.917 1.806-1.312-1.12-.704-2.868-.857-3.892 0-.63.527 1.562 1.144 1.505 2-.718 10.911-1.166 21.993-3.78 32.564-.356 1.444-3.108-.452-3.845-1.718-3.496-6.006 286.16 25.144-36.283-2.537-.81-.07 2.124-.439 2.107-1.312-.014-.765-1.61.52-2.133 0-2.784-2.771-5.088-6.076-7.302-9.39-3.856-5.77-4.349-18.873-10.88-17.818-11.673 1.884-17.989 16.49-27.5 24.014-.66.522-3.015.297-2.438-.328.11-.118 2.056-.945 5.224.555 8.19 3.876 15.842 9.009 24.09 12.74 6.915 3.126 28.792 8.282 21.306 7.788-17.995-1.187-68.28-21.727-80.432-25.705-2.92-.956-6.106-.558-9.069-1.347-1.299-.347 2.686.158 4.016 0 .432-.052-1.399.117-1.266-.328l13.868-40.725c.353-1.18-1.35-2.71-.609-3.658.743-.952 2.362.37 3.464 0 1.328-.444-4.51-1.195-2.485.968.943 1.007 2.729 1.041 3.363 2.296 5.292 10.462 10.64 21.03 14.152 32.327.433 1.395-2.736 0-4.103 0-33.232 0 38.973 1.216 2.804-3.409-14.574-1.863-29.367-.803-43.978-2.3-1.653-.169 4.152-.041 4.72-1.721.477-1.41-70.417-4.927 52.927-1.027 14.055.445 28.106 1.328 42.105 2.74 8.322.84 16.552 2.528 24.795 4.01.836.15-2.253-.865-2.543-.007-.797 2.356-.356 5.045 0 7.523 1.155 8.042 6.963 16.225 4.517 23.925-1.268 3.99-6.855-4.13-10.013-6.625-5.793-4.58-11.71-9.09-16.792-14.563-14.084-15.168-27.69-30.883-40.586-47.23-.769-.974 2.424.686 3.555.294 8.855-3.069 17.496-6.821 26.12-10.577.802-.35-1.79.704-2.58.324-.46-.22 1.167-1.524 1.204-.984l5.242 30.371c.116 1.656-5.32-.961-4.197-2.1 1.947-1.976 5.62-.103 7.883-1.64 5.697-3.868 9.877-9.92 15.356-14.137 6.216-4.785 12.908-8.833 19.614-12.779.617-.362 2.272.736 2.108 0-.053-.235-51.919-34.04 13.357 8.824.625.41-1.382-.687-1.829-1.312l1.502-.656c-.356-.497-1.237-.001-1.72.352l-21.12 17.33c-.623.456 1.33-2.128.603-2.346l-2.837-2.374c-2.016-.604-8.36-.31-6.268-.355 16.276-.357 32.595.649 48.835-.578 7.517-.568 15.312-8.16 22.164-4.787 4.045 1.992-4.958 7.994-6.827 12.338-7.65 17.775 6.612 12.324-22.647 11.865-.77-.013 2.629-.897 1.962-1.312-2.669-1.666-7.655.094-8.833-2.975-1.026-2.674 5.402.231 8.024.866 1.84.446 3.553 1.397 5.22 2.343 8.144 4.618 15.762 10.352 24.19 14.336 1.091.516 4.28-2.13 3.362-1.312-2.76 2.461-6.315 3.78-9 6.337-19.957 19.005-6.85 15.778-25.03 8.566-5.789-2.297-12.08-2.957-17.812-5.412-.918-.393 1.866-1.32 2.811-1.01l.305-2.398c22.45 7.328 21.813 11.743 49.42 10.249.522-.029.266-1.206 0-1.69l3.964-3.054c-14.486-26.299-28.643-27.637-29.166-54.64-.006-.335.331.65.247.973l-1.828-.656c-1.924 7.392-2.03 31.412-11.094 35.794-6.975 3.372-15.317-1.038-22.8-2.737-158.035-35.894 75.145 13.905-49.647-17.514-12.435-3.131-25.245-4.175-37.868-6.263" stroke="#000"/><path d="M220.55 68.25c5.472 5.416 1.782.532-1.821 2.623-1.126.653 2.689.832 3.893.336 4.79-1.974 8.805-5.554 13.59-7.54 5.088-2.11 10.384-3.994 15.85-4.673.895-.111 1.45 3.04.65 2.624l-3.108.328c-.576-.3-.64-2.058 0-1.944l3.299-.325c.498.089-1.77.366-1.364.668l2.353 2.725c8.592 6.385 17.878 11.836 26.239 18.522 1.24.992-5.496.361-3.764-1.644.406-.47 4.585 2.087 4.499 2.026-8.852-6.218-3.303-3.41 22.58-18.517 1.977-1.154 4.06-2.216 6.278-2.784 3.32-.85 6.815-.794 10.182-1.433 1.486-.282-3.016.23-4.522.36-1.37.117 4.394-1.669 4.112-.325l.613 4.314c-.05.243-20.713-5.9-29.374-8.565-1.677-.517 3.638.615 4.956 1.772 4.438 3.894-18.717-2.06 2.303 1.347.432.07.373 1.083 0 1.312-9.271 5.683-20.912 8.188-28.382 16.085-3.714 3.927 10.788-1.352 15.956-2.947 4.17-1.288-6.752-2.364-4.151-3.557 6.609-3.032 44.045 46.07-15.502-16.913-.646-.683 6.71 9.101-2.044 1.171-.215-.194 7.955 5.952-1.537 2.674-21.61-7.462-42.758-16.202-64.267-23.952-4.863-1.752 9.187 2.287 5.684 4.853-.843.617-24.94-11.636 15.975 8.75 9.572 4.769 20.1 7.652 29.245 13.196 2.13 1.291-4.985 0-7.478 0-1.845 0 6.388 1.634 5.535 0-1.104-2.114-4.393-2.06-6.762-2.35-4.106-.504-8.32-.611-12.41 0-16.718 2.494-33.39 5.444-49.848 9.291-62.762 14.672 24.36-5.37 9.877 1.995-1.343.683-5.88.653-4.522 0l7.25-.32c22.656-10.883 44.061-24.241 66.683-35.196 8.145-3.944 17.167-5.805 25.461-9.425 1.181-.515-2.577 0-3.865 0-.823 0 8.055-.39-.395 2.019-1.606.457-3.352.195-5.011 0-10.624-1.255-21.299-2.293-31.797-4.346-11.32-2.213-22.15-6.75-33.56-8.433-2.107-.31 4.267 2.138 4.815 4.193.306 1.15-2.245.975-3.436.984-.725.006 1.375-1.417 1.947-.972l.32 2.296c4.646 3.617 10.214 5.933 14.873 9.534 3.996 3.088 7.502 6.778 10.976 10.443.415.439-1.128-.433-1.693-.648l-2.247-.64c-.616-.233-.84-1.53-.329-1.944 2.948-2.392 6.444-4.037 9.827-5.763 8.513-4.344 16.987-8.821 25.836-12.435 6.38-2.605 13.34-3.598 19.732-6.172.646-.26-6.706 1.11-5.688 1.644 8.801 4.603 18.636 6.974 27.56 11.333 14.148 6.911 28.053 14.356 41.566 22.434.467.279-6.204 1.321-5.867 1.05 10.916-8.766 21.95-17.477 33.803-24.932 5.322-3.348 11.845-4.34 17.405-7.277 1.272-.673-5.18-.786-4.303.355l-.317 1.362c1.655 2.153 32.991 3.85-12.144.984-17.964-1.14-35.88-2.926-53.823-4.357-14.088-1.123 8.5-.256 3.623 1.312-4.839 1.556-4.93-2.962 1.438 2.354 8.432 7.038 16.162 14.88 24.453 22.082.705.612-1.766-1.343-1.641-2.268.086-.642 2.594.029 1.946 0l-18.015 1.64c-8.214-.364-16.468-.594-24.598-1.816-9.442-1.419-18.643-4.137-27.99-6.086-.139-.03 4.543.83 1.947 2.623-.92.635-4.147-.43-3.335.336 2.781 2.618 6.405 4.22 9.874 5.821 17.41 8.037 35.394 14.811 52.701 23.066 30.769 14.675-47.186 18.628-52.783 19.849-1.733.378 3.818-.605 5.308.355.839.54-2.01.598-2.678 1.34-.48.533 1.338-.657 2.056-.649l-3.005-1.62c4.755.055 9.549.6 14.157 1.776 16.08 4.108 31.98 8.929 47.768 14.044 1.402.454-2.957.17-4.42 0-.548-.064 1.886.16 1.622-.324l-12.551-20.314c-3.58-6.558-5.605-13.94-9.6-20.255-.808-1.276.136 3.09-.356 4.518-.146.426-.875.447-1.313.335l-.684 1.64c-12.073-3.09-24.306-5.723-36.07-9.835-10.238-3.578-19.618-9.3-29.749-13.172-.822-.314 1.924 2.913 1.298 2.295l-1.97-.324c-.385-.38-.497-1.408 0-1.62 1.957-.835 10.712-.01 20.571 1.312 11.685 1.566 22.957 5.47 34.596 7.34 3.649.586 7.41-.37 11.086 0 .778.078 2.622.917 1.946 1.312-1.207.704-3.09.857-4.194 0-.678-.527 1.683-1.144 1.622-2-.774-10.911-1.257-21.993-4.073-32.564-.384-1.444-3.35.452-4.143 1.718-3.767 6.006 308.335-25.144-39.095 2.537-.872.07 2.29.439 2.271 1.312-.016.765-1.736-.52-2.298 0-3 2.771-5.483 6.076-7.869 9.39-4.154 5.77-4.685 18.873-11.722 17.818-12.579-1.884-19.383-16.49-29.632-24.014-.71-.522-3.249-.297-2.626.328.118.118 2.214.945 5.628-.555 8.825-3.876 17.07-9.009 25.958-12.74 7.45-3.126 31.022-8.282 22.956-7.788-19.39 1.187-73.572 21.727-86.664 25.705-3.146.956-6.58.558-9.772 1.347-1.4.347 2.893-.158 4.327 0 .465.052-1.507-.117-1.364.328l14.943 40.725c.38 1.18-1.455 2.71-.657 3.658.8.952 2.545-.37 3.733 0 1.43.444-4.86 1.195-2.678-.968 1.016-1.007 2.94-1.041 3.624-2.296 5.702-10.462 11.464-21.03 15.248-32.327.467-1.395-2.947 0-4.421 0-35.807 0 41.993-1.216 3.021 3.409-15.703 1.863-31.642.803-47.385 2.3-1.782.169 4.473.041 5.085 1.721.514 1.41-75.874 4.927 57.028 1.027 15.144-.445 30.285-1.328 45.369-2.74 8.966-.84 17.834-2.528 26.716-4.01.9-.15-2.427.865-2.74.007-.86-2.356-.384-5.045 0-7.523 1.244-8.042 7.502-16.225 4.866-23.925-1.365-3.99-7.385 4.13-10.788 6.625-6.242 4.58-12.618 9.09-18.093 14.563-15.176 15.168-29.835 30.883-43.73 47.23-.83.974 2.61-.686 3.83-.294 9.54 3.069 18.851 6.821 28.142 10.577.865.35-1.927-.704-2.779-.324-.496.22 1.257 1.524 1.298.984l5.648-30.371c.125-1.656-5.732.961-4.522 2.1 2.098 1.976 6.054.103 8.493 1.64 6.139 3.868 10.642 9.92 16.546 14.137 6.698 4.785 13.908 8.833 21.134 12.779.665.362 2.448-.736 2.271 0-.056.235-55.942 34.04 14.392-8.824.674-.41-1.489.687-1.97 1.312l1.618.656c-.383.497-1.332.001-1.852-.352l-22.757-17.33c-.672-.456 1.432 2.128.649 2.346l-3.057 2.374c-2.171.604-9.008.31-6.754.355 17.537.357 35.122-.649 52.62.578 8.099.568 16.498 8.16 23.882 4.787 4.357-1.992-5.343-7.994-7.357-12.338-8.242-17.775 7.125-12.324-24.402-11.865-.83.013 2.833.897 2.115 1.312-2.876 1.666-8.249-.094-9.518 2.975-1.105 2.674 5.82-.231 8.646-.866 1.982-.446 3.828-1.397 5.625-2.343 8.774-4.618 16.983-10.352 26.063-14.336 1.176-.516 4.613 2.13 3.624 1.312-2.975-2.461-6.805-3.78-9.698-6.337-21.504-19.005-7.382-15.778-26.97-8.566-6.237 2.297-13.015 2.957-19.192 5.412-.99.393 2.01 1.32 3.03 1.01l.328 2.398c24.19-7.328 23.503-11.743 53.248-10.249.564.029.288 1.206 0 1.69l4.272 3.054c-15.608 26.299-30.863 27.637-31.426 54.64-.007.335.357-.65.266-.973l-1.97.656c-2.073-7.392-2.187-31.412-11.953-35.794-7.516-3.372-16.504 1.038-24.566 2.737-170.283 35.894 80.967-13.905-53.495 17.514-13.399 3.131-27.202 4.175-40.803 6.263" stroke="#000"/><path d="M196.327 95.334c-4.647-7.222-1.513-.71 1.547-3.498.957-.871-2.284-1.109-3.306-.447-4.069 2.631-7.478 7.405-11.543 10.052-4.32 2.813-8.819 5.325-13.461 6.23-.76.149-1.23-4.052-.552-3.497l2.64-.438c.488.4.542 2.744 0 2.593l-2.802.432c-.424-.118 1.503-.488 1.158-.89l-1.998-3.634c-7.298-8.514-15.185-15.78-22.285-24.695-1.054-1.323 4.667-.482 3.196 2.191-.345.627-3.894-2.782-3.82-2.701 7.517 8.291 2.804 4.548-19.179 24.69-1.679 1.538-3.448 2.954-5.331 3.711-2.82 1.134-5.788 1.059-8.648 1.91-1.262.377 2.561-.306 3.84-.478 1.164-.157-3.731 2.224-3.492.432l-.52-5.752c.042-.323 17.592 7.866 24.947 11.42 1.424.689-3.09-.82-4.21-2.363-3.768-5.19 15.898 2.748-1.955-1.795-.367-.094-.317-1.445 0-1.75 7.874-7.577 17.76-10.916 24.105-21.447 3.155-5.236-9.162 1.803-13.551 3.93-3.541 1.717 5.735 3.152 3.525 4.743-5.613 4.042-37.408-61.428 13.166 22.55.549.911-5.698-12.134 1.737-1.561.182.259-6.757-7.937 1.304-3.566 18.354 9.95 36.316 21.603 54.583 31.936 4.13 2.337-7.802-3.049-4.827-6.47.716-.823 21.181 15.514-13.567-11.666-8.13-6.359-17.072-10.203-24.839-17.595-1.81-1.722 4.234 0 6.351 0 1.567 0-5.425-2.178-4.7 0 .937 2.818 3.73 2.747 5.742 3.134 3.488.671 7.066.814 10.54 0 14.199-3.327 28.359-7.26 42.337-12.39 53.305-19.562-20.69 7.16-8.389-2.66 1.141-.91 4.995-.87 3.841 0l-6.158.427c-19.242 14.512-37.422 32.323-56.635 46.929-6.917 5.258-14.58 7.74-21.624 12.566-1.003.687 2.188 0 3.283 0 .699 0-6.842.52.335-2.691 1.364-.61 2.847-.261 4.256 0 9.023 1.672 18.09 3.057 27.006 5.794 9.615 2.95 18.811 9 28.503 11.244 1.79.414-3.624-2.85-4.09-5.591-.26-1.533 1.907-1.3 2.918-1.312.617-.008-1.167 1.89-1.653 1.296l-.272-3.06c-3.946-4.824-8.675-7.912-12.632-12.713-3.394-4.118-6.371-9.037-9.321-13.925-.353-.584.957.579 1.437.864l1.909.854c.522.311.713 2.04.279 2.593-2.504 3.19-5.473 5.382-8.346 7.683-7.23 5.792-14.428 11.762-21.943 16.58-5.419 3.473-11.33 4.798-16.758 8.23-.55.347 5.695-1.481 4.83-2.192-7.475-6.138-15.828-9.299-23.408-15.112-12.015-9.214-23.825-19.14-35.302-29.91-.396-.373 5.27-1.762 4.983-1.401-9.271 11.688-18.642 23.303-28.709 33.243-4.52 4.463-10.06 5.786-14.783 9.703-1.08.896 4.4 1.047 3.655-.474l.27-1.816c-1.406-2.87-28.02-5.134 10.314-1.312 15.256 1.52 30.473 3.901 45.712 5.81 11.965 1.497-7.218.34-3.077-1.75 4.11-2.074 4.188 3.95-1.222-3.139-7.161-9.384-13.726-19.84-20.768-29.443-.599-.816 1.5 1.792 1.394 3.025-.073.856-2.203-.039-1.653 0l15.3-2.187c6.977.486 13.987.792 20.892 2.421 8.02 1.892 15.834 5.517 23.772 8.116.118.038-3.858-1.107-1.653-3.499.78-.846 3.522.573 2.832-.447-2.362-3.491-5.44-5.627-8.386-7.762-14.786-10.716-30.06-19.748-44.76-30.754-26.132-19.568 40.076-24.838 44.83-26.466 1.471-.504-3.242.807-4.508-.473-.713-.72 1.707-.797 2.274-1.786.408-.712-1.136.875-1.746.864l2.553 2.16c-4.04-.073-8.11-.798-12.024-2.368-13.658-5.477-27.162-11.904-40.57-18.724-1.191-.606 2.51-.226 3.754 0 .465.084-1.602-.213-1.378.432l10.66 27.084c3.04 8.744 4.76 18.587 8.153 27.007.686 1.702-.115-4.118.302-6.023.125-.57.744-.597 1.115-.448l.581-2.186c10.254 4.12 20.644 7.63 30.635 13.113 8.695 4.772 16.662 12.4 25.266 17.563.698.42-1.633-3.884-1.102-3.06l1.673.432c.327.506.423 1.877 0 2.16-1.662 1.113-9.098.013-17.471-1.75-9.924-2.087-19.498-7.292-29.383-9.786-3.099-.781-6.293.494-9.415 0-.662-.104-2.227-1.223-1.653-1.749 1.025-.939 2.625-1.143 3.562 0 .575.703-1.43 1.525-1.378 2.666.657 14.549 1.068 29.324 3.46 43.42.326 1.924 2.844-.603 3.518-2.291 3.2-8.009-261.873 33.524 33.204-3.384.74-.092-1.944-.584-1.929-1.749.014-1.02 1.475.693 1.952 0 2.548-3.694 4.657-8.101 6.683-12.52 3.528-7.692 3.98-25.163 9.956-23.758 10.683 2.513 16.463 21.987 25.167 32.02.604.696 2.759.396 2.23-.437-.1-.159-1.88-1.26-4.78.739-7.495 5.169-14.498 12.012-22.046 16.986-6.328 4.169-26.348 11.043-19.497 10.385 16.468-1.583 62.485-28.97 73.605-34.274 2.672-1.274 5.589-.743 8.3-1.796 1.189-.461-2.458.212-3.675 0-.395-.068 1.28.156 1.158-.437l-12.691-54.3c-.323-1.572 1.235-3.612.557-4.877-.68-1.269-2.16.492-3.17 0-1.214-.593 4.128-1.594 2.274 1.291-.862 1.342-2.496 1.388-3.077 3.06-4.843 13.95-9.737 28.042-12.95 43.103-.398 1.861 2.503 0 3.754 0 30.411 0-35.666 1.622-2.566-4.544 13.337-2.485 26.875-1.07 40.245-3.066 1.513-.226-3.8-.056-4.319-2.296-.436-1.88 64.44-6.57-48.435-1.37-12.862.593-25.72 1.772-38.532 3.655-7.615 1.12-15.147 3.37-22.69 5.346-.765.2 2.061-1.153 2.327-.01.73 3.142.326 6.727 0 10.031-1.057 10.723-6.372 21.633-4.133 31.9 1.16 5.32 6.273-5.506 9.162-8.834 5.302-6.106 10.717-12.12 15.367-19.417 12.89-20.224 25.34-41.177 37.141-62.972.704-1.3-2.218.913-3.253.39-8.103-4.09-16.011-9.094-23.902-14.101-.734-.466 1.637.938 2.36.432.422-.295-1.067-2.033-1.102-1.312l-4.797 40.494c-.106 2.208 4.868-1.281 3.841-2.8-1.782-2.635-5.142-.138-7.214-2.187-5.213-5.157-9.038-13.227-14.052-18.85-5.69-6.379-11.813-11.777-17.95-17.037-.564-.484-2.079.98-1.929 0 .049-.314 47.513-45.388-12.223 11.765-.572.547 1.265-.916 1.673-1.75l-1.374-.874c.325-.664 1.132-.002 1.573.468l19.328 23.108c.57.608-1.216-2.838-.551-3.128l2.596-3.165c1.844-.806 7.65-.413 5.736-.474-14.894-.476-29.829.865-44.69-.77-6.879-.758-14.012-10.88-20.283-6.383-3.702 2.655 4.537 10.659 6.247 16.45 7 23.7-6.05 16.433 20.725 15.82.705-.016-2.405-1.195-1.796-1.75 2.443-2.22 7.006.126 8.084-3.966.939-3.565-4.943.308-7.343 1.156-1.683.594-3.251 1.862-4.777 3.123-7.453 6.158-14.424 13.803-22.136 19.115-1 .688-3.918-2.84-3.078-1.75 2.527 3.282 5.78 5.04 8.237 8.45 18.263 25.34 6.269 21.037 22.906 11.42 5.297-3.061 11.054-3.942 16.3-7.214.84-.524-1.708-1.76-2.573-1.349l-.28-3.196c-20.544 9.771-19.961 15.657-45.224 13.665-.478-.038-.244-1.608 0-2.254l-3.628-4.071c13.256-35.065 26.212-36.85 26.69-72.852.006-.448-.302.865-.225 1.296l1.673-.874c1.76 9.855 1.857 41.883 10.152 47.724 6.383 4.496 14.017-1.383 20.864-3.649 144.623-47.858-68.767 18.54 45.434-23.352 11.38-4.175 23.103-5.567 34.655-8.35" stroke="#000"/></g></svg>